<?xml version="1.0" encoding="utf-8"?>
<!-- Generator: Adobe Illustrator 22.0.0, SVG Export Plug-In . SVG Version: 6.00 Build 0)  -->
<svg version="1.1" id="Layer_1" xmlns="http://www.w3.org/2000/svg" xmlns:xlink="http://www.w3.org/1999/xlink" x="0px" y="0px"
	 viewBox="0 0 137.3 123.4" style="enable-background:new 0 0 137.3 123.4;" xml:space="preserve">
<style type="text/css">
	.st0{fill:#FFFFFF;}
</style>
<g>
	<path class="st0" d="M29,43.7c-0.2-0.9-0.5-1.7-0.6-2.6c-1.1-5.5-2.2-11-3.2-16.6c-0.5-2.7-1-5.5-1.5-8.3c-0.3-1.5-0.6-1.8-2.1-1.8
		c-4.9,0-9.9,0-14.8-0.2c0.9,0,1.8,0,2.7,0c0-0.1,0-0.2,0-0.3c-0.8,0-1.7,0-2.5,0c-1.4,0-2.6-0.3-3.8-1c-2-1.3-2.9-3-3.2-5.4
		C-0.2,5.7,0.4,4,1.5,2.5C1.8,2,2.4,1.6,3,1.3C4,0.8,5.1,0.4,6.1,0c0,0.1,0.1,0.2,0.1,0.3C6.1,0.4,6,0.5,5.7,0.7c2.6,0,5.1,0,7.6,0
		c-0.2-0.1-0.4-0.1-0.5-0.1c5.3,0.1,10.7,0.2,16.1,0.3c0-0.1,0-0.3,0-0.4c-2.2,0-4.4,0-6.6,0c-2.2,0-4.4,0-6.6-0.1
		c0.1,0,0.1-0.1,0.2-0.1c3,0,6,0,9,0.1c1.3,0,2.7,0,4,0.1c1.7,0.1,3.2,0.6,4.6,1.5c1.7,1.2,2.4,3,2.8,4.9c1.2,5.8,2.3,11.7,3.5,17.5
		c0.1,0.6,0.3,0.9,1,0.9c1.9-0.1,3.8,0,5.8,0c3,0,5.9,0,8.9,0.2c-5.1,0-10.2,0-15.4,0c0.1,0.7,0.7,0.6,1.1,0.6c5,0,9.9,0,14.9,0
		C66.5,25.9,77,26,87.4,26c0.8,0,1.6,0,2.4,0c0-0.1,0-0.2,0-0.3c-5.9,0-11.9,0-17.8,0c0-0.1,0-0.2,0-0.3c0.3,0,0.6,0,0.9,0
		c3.7,0,7.4,0.1,11,0.1c5.4,0,10.7-0.2,16.1-0.2c3.7,0,7.3,0,11,0.3c4.9,0.5,9.7,0.2,14.5,0.2c1.7,0,3.5-0.2,5.2,0.1
		c5.7,0.9,8.5,7.5,5.2,12.2c-0.6,0.9-1.6,1.6-2.4,2.5c-0.1,0.1-0.3,0.3-0.4,0.4c-0.4,1.7-0.7,3.4-1.1,5c0.1,0,0.2,0,0.2,0.1
		c0.4-1.4,0.8-2.8,1.1-4.2c0,0,0.1,0,0.1,0c-0.3,1.4-0.5,2.8-0.8,4.2c-0.4,1.8-0.6,3.6-1.3,5.2c-1.1,2.4-1,5-1.7,7.5
		c-0.6,2-1.1,4-1.5,6c-0.2,1.1-0.3,2.2-0.5,3.3c-0.1,0.8-0.4,1.6-0.6,2.4c-0.5,2-1,4-1.4,6.1c-0.4,1.7-0.7,3.5-1.1,5.2
		c-0.1,0.5,0,0.7,0.5,0.9c5.3,2,5.4,9.1,1.5,12.1c-1.2,0.9-2.5,1.4-4,1.4c-2.7,0.1-5.4,0.2-8.1,0.3c-1.1,0-2.2-0.1-3.4-0.1
		c-4.1,0-8.3,0-12.4,0c-13,0-26-0.1-39-0.2c-4.4,0-8.8-0.1-13.2,0c-4.2,0.1-7.7-2-8.5-7c-0.5-3-1.2-5.9-1.7-8.8
		c-1.6-8.3-3.1-16.6-4.6-24.9c-1.6-8.4-3.1-16.8-4.7-25.1c-0.2-1.3-0.4-2.5-0.7-3.8c0-0.1-0.1-0.3-0.1-0.4c-0.1,0-0.1,0-0.2,0
		c0.1,0.6,0.2,1.1,0.3,1.7c0.9,5.2,1.9,10.4,2.8,15.6C28.9,43.6,29,43.6,29,43.7L29,43.7z M129.9,31.9
		C129.9,31.9,129.9,31.8,129.9,31.9c0.1-0.1,0.1-0.1,0.1-0.1c-0.3-0.1-0.6-0.2-0.9-0.2c-4,0-8,0-12,0c-0.7,0-1.4,0-2.1,0
		c0,0.1,0,0.1,0,0.2c0.8,0,1.7,0,2.5,0c-3.2,0.1-6.4,0.2-9.6,0.3c-0.2,0-0.6,0-0.6,0c-0.2-0.8-0.8-0.5-1.3-0.5c-3.1,0-6.2,0-9.3,0
		c-3.9,0-7.8,0-11.6,0c-0.3,0-0.5,0-0.8,0.1c0,0.1,0,0.1,0,0.2c0.4,0,0.7,0.1,1.1,0.1c0,0,0,0,0,0.1c-14.6,0-29.2,0-44,0
		c0.2,1.1,0.5,2.1,0.5,3.1c0.1,0.9,0.5,1.1,1.3,1.1c4.5,0,9-0.1,13.4-0.1c8.2,0,16.3,0,24.5,0c9.2,0,18.4,0,27.5,0
		c0.3,0,0.6,0,0.8-0.1c0-0.1,0-0.2,0-0.2c-10.3-0.1-20.6-0.2-30.9-0.3c4.4,0.1,8.8,0.1,13.3,0.1c8.4,0,16.8-0.1,25.2-0.1
		c4,0,8,0.1,12,0.1c1,0,1.7-0.5,1.9-1.2c0.3-0.8,0-1.6-0.8-2.2C130.1,32.1,130,32,129.9,31.9L129.9,31.9z M36.8,40.8
		c0-0.2,0.1-0.3,0-0.5c-0.4-2.3-0.8-4.6-1.3-6.9c-0.3-1.6-0.6-3.1-0.9-4.7c-0.1,0-0.1,0-0.2,0c0,0.2-0.1,0.3-0.2,0.8
		c-0.5-2.7-0.9-5.2-1.4-7.7c-0.4-1.9-0.9-3.7-1.2-5.5c-0.5-2.6-1-5.2-1.5-7.8c-0.3-1.5-0.6-1.8-2.1-1.8c-7,0-13.9,0-20.9,0
		c-0.4,0-0.9,0.2-1.1,0.5C5.7,7.6,6,8.1,6.5,8.2c1.2,0.1,2.4,0.2,3.6,0.2c4.1,0.1,8.3,0,12.4,0.2c3.7,0.1,6.3,2.5,7,6.2
		c1.1,5.9,2.2,11.8,3.3,17.7c0,0.2,0.1,0.4,0.2,0.6c0.1,0,0.1,0,0.2-0.1c-0.9-5.1-1.8-10.1-2.7-15.2c1,4.3,1.9,8.7,2.7,13.1
		c1.2,6.3,2.3,12.5,3.4,18.8c0.3,2,0.4,4,0.8,6c0.8,4.4,1.7,8.7,2.6,13.1c1.3,6.8,2.5,13.6,3.7,20.4c0.2,1,0.7,1.5,1.7,1.6
		c0.8,0.1,1.6,0.1,2.4,0.1c6.6,0,13.2-0.1,19.8-0.1c8.8,0,17.5,0.1,26.3,0.1c2.6,0,5.1-0.1,7.7-0.1c4.2,0,8.4,0.1,12.6,0.1
		c2.6,0,5.2,0,7.8,0c1,0,1.6-0.5,1.7-1.3c0.1-1-0.5-1.6-1.6-1.6c-6.5,0-13.1,0.1-19.6,0.1c-7.6,0-15.2-0.1-22.8-0.1
		c-8.3,0-16.7,0-25,0c-0.3,0-0.6,0-0.9,0c0,0.1,0,0.1,0,0.2c7.6,0.1,15.3,0.2,22.9,0.3c-2.7,0-5.4,0-8.1,0c-5.4,0-10.7,0.1-16.1,0.1
		c-4.1,0-7.3-2.7-8-6.8c-0.5-2.8-1-5.6-1.6-8.4c-0.3-1.6-0.6-3.2-0.9-4.9c0.2,0.2,0.2,0.5,0.3,0.8c0.1,0.3,0.1,0.5,0.2,0.8
		c0.2-0.2,0.2-0.3,0.2-0.4c-1.1-4.4-1.4-9-2.9-13.4c-0.6-1.8-1-3.8-1.4-5.6c-0.1-0.5-0.5-1.1,0.2-1.5c0.1,0,0.1-0.3,0-0.5
		c-0.5-2-1-4-1.4-6C36.9,42.1,36.9,41.4,36.8,40.8L36.8,40.8z M124.2,55.7c0.1-0.2,0.3-0.5,0.3-0.7c0.2-1,0.4-2,0.3-3.1
		c-0.1-1.2,0.4-2.5,0.6-3.8c0.3-1.4,0.6-2.7,1-4.1c0.2-0.8,0.3-1.6,0.5-2.4c-0.3,0-0.4,0-0.5,0c-5.2,0.1-10.4,0.1-15.6,0.2
		c-3.4,0-6.8,0-10.2,0c-5.7,0-11.3-0.1-17-0.1c-13.3,0-26.5,0-39.8,0c-0.2,0-0.5,0-0.8,0c0.1,0.4,0.1,0.7,0.2,1
		c0.4,1.7,0.8,3.4,1.1,5.2c0.3,1.5,0.4,3.1,0.6,4.6c0.8,4.6,1.7,9.2,2.6,13.7c0.9,4.8,1.9,9.6,2.8,14.4c0.2,1.2,0.9,1.7,2.1,1.7
		c4.7,0,9.3,0,14,0c0.3,0,0.5,0,0.8,0c0-0.1,0-0.2,0-0.3c-5.2,0-10.3,0-15.5,0c0-0.1,0-0.2,0-0.2c12.5,0,25,0,37.6,0
		c0,0.1,0,0.1,0,0.2c-0.2,0-0.4,0.1-0.6,0.1c0,0,0,0.1,0,0.1c0.4,0,0.8,0,1.2,0c3.7,0,7.5,0,11.2,0c1.4,0,2.8-0.3,4.2-0.3
		c4.2,0,8.4,0.1,12.6,0.1c0.6,0,0.9-0.2,1-0.8c0.7-3.3,1.4-6.6,2-9.8c0-0.1,0-0.3,0-0.5c-0.1,0-0.1,0-0.2,0c-0.3,1.3-0.6,2.7-1,4
		c0.2-1.4,0.3-2.9,0.7-4.3c0.6-2.3,0.9-4.7,2-6.9c0.6-1.2,0.8-2.7,0.5-4.1c-0.1-0.6-0.4-1.4,0.6-1.6c0.1,0,0.2-0.3,0.2-0.4
		C124.1,56.9,124.1,56.3,124.2,55.7L124.2,55.7z"/>
	<path class="st0" d="M99.8,103.3c1.4-1.9,3.3-3.4,5.6-3.9c1.3-0.3,2.6-0.5,4-0.4c2.1,0,4.2,0.6,6,1.7c0.8,0.4,1.5,1,2.4,1.6
		c-0.2-0.4-0.4-0.6-0.5-0.8c0-0.1,0.1-0.1,0.1-0.2c0.3,0.2,0.6,0.4,0.9,0.7c1.2,1,2,2.2,2.2,3.8c0.1,0.7,0.5,1.3,0.8,2
		c0.8,1.8,0.7,3.7,0.3,5.5c-0.3,1.3-0.7,2.5-1.1,3.8c-0.1,0.4-0.5,0.7-0.7,1.1c-0.8,1.3-1.8,2.2-3,3c-1.6,1-3.3,1.9-5.2,2.1
		c-2.4,0.3-4.8,0.3-7-0.8c-2.6-1.3-4.7-3.3-5.9-6c0-0.1-0.1-0.2-0.2-0.3c0,0-0.1,0-0.3-0.1c0.5,1,0.9,1.8,1.4,2.7
		c-2.1-2.3-2.6-5-2.5-7.8c0.1-0.1,0.4-0.1,0.4-0.2c0.1-0.9,0.1-1.8,0.1-2.7c0-0.5-0.4-1.2,0.6-1.3c0.2,0,0.5-0.7,0.5-1
		C98.4,104.6,99,104,99.8,103.3c-0.4,0.6-0.8,1.1-1.2,1.7c0.1,0.1,0.2,0.1,0.3,0.2c0.5-0.6,0.9-1.3,1.4-1.9c0,0-0.1-0.1-0.1-0.1
		C100,103.2,99.9,103.3,99.8,103.3z M112.7,116.6c0,0,0.1,0.1,0.1,0.1c0.6-0.7,1.1-1.4,1.7-2c0.6-0.6,1.2-1,1.1-2
		c0-0.1,0.1-0.2,0.1-0.2c0-1.1,0.4-2.2,0-3.1c-0.7-1.7-1.7-3.1-3.5-4c-2.8-1.4-6.3-0.3-8,2.2c-0.1,0.1-0.1,0.3-0.1,0.5
		c0.3-0.3,0.5-0.5,0.8-0.6c0,0-0.1,0-0.1-0.1c-0.5,1.5-1,2.9-1.6,4.4c0.1,0,0.1,0.1,0.2,0.1c-0.1-0.1-0.1-0.3-0.2-0.6
		c-0.3,1,0.2,1.5,0.6,2.1c-0.1,0.4-0.1,0.7,0.1,1c0.3,0.6,0.8,1,1.4,1.4c1.8,1.2,3.6,2.3,5.9,2c1-0.1,2.3-0.9,2.6-1.5
		C113.3,116.3,113,116.4,112.7,116.6z"/>
	<path class="st0" d="M46.3,110.4c0.1,0.3,0.1,0.4,0.2,0.6c0.1,0,0.1,0,0.2,0c0.1-0.9,0.1-1.8,0.1-2.7c0-0.6-0.5-1.4,0.6-1.6
		c0.1,0,0.3-0.3,0.3-0.5c0-0.7,0.6-1.1,0.9-1.6c0.3-0.6,0.6-1.2,0.9-1.8c0.1-0.2,0.2-0.4,0.4-0.6c1.8-1.7,3.8-2.8,6.3-3.2
		c1.6-0.3,3.2-0.1,4.7,0.2c1.6,0.3,3.1,1.2,4.6,1.9c0.3,0.1,0.6,0.4,0.9,0.6c0-0.1,0.1-0.1,0.1-0.2c-0.4-0.4-0.9-0.8-1.3-1.2
		c2,1.1,3.8,2.4,4.6,4.7c0.5,1.6,1,3.2,1.3,4.8c0.3,2-0.3,3.9-0.9,5.7c-1.4,4.4-4.8,6.6-9,7.5c-2.1,0.5-4.3,0.4-6.3-0.3
		c-3.1-1.1-5.4-3.2-6.9-6.1c-0.1-0.2-0.2-0.4-0.3-0.6c-0.1,0-0.1,0.1-0.2,0.1c0.4,0.8,0.8,1.5,1.2,2.3
		C47,117.2,46.2,114.3,46.3,110.4z M62,116.5c0,0,0-0.1-0.1-0.1c0.8-0.7,1.5-1.4,2.3-2.2c0.3-0.3,0.6-0.6,0.6-0.9
		c0.3-1.9,0.9-3.8-0.6-5.5c-0.6-0.7-1.1-1.6-1.9-2.1c-3.4-2.2-7.6-0.8-9.3,2.3c-0.1,0.2-0.2,0.4-0.2,0.6c0,0,0.1,0,0.1,0
		c0.3-0.4,0.5-0.7,0.8-1.1c-0.4,1.3-0.9,2.6-1.3,3.7c0.1,0.1,0,0-0.1-0.1c-0.3,0.9,0,1.5,0.8,2c-0.4,0.4-0.6,0.7,0,1.1
		c0.5,0.3,0.8,0.8,1.3,1.2c1.7,1.5,3.7,2.4,6.1,2c1-0.2,1.8-0.6,2.4-1.5C62.7,116.3,62.3,116.4,62,116.5z"/>
	<path class="st0" d="M29,43.7c0.2,1.5,0.5,3.1,0.7,4.6c-0.1,0-0.1,0-0.2,0C29.4,46.8,29.2,45.2,29,43.7C29,43.7,29,43.7,29,43.7z"
		/>
	<path class="st0" d="M8.7,0c1.4,0,2.8,0,4.3,0c0,0,0,0,0,0.1C11.6,0.1,10.1,0.1,8.7,0C8.7,0,8.7,0,8.7,0z"/>
	<path class="st0" d="M47,59.1c-0.7-3.5-1.3-7.1-2-10.6c0,0,0.1,0,0.1,0c0.7,3.5,1.4,7.1,2.1,10.6C47.1,59.1,47,59.1,47,59.1z"/>
	<path class="st0" d="M124.2,55.7c-0.1,0-0.3,0-0.5,0c0.2-0.7,0.4-1.4,0.6-2.4C124.3,54.3,124.2,55,124.2,55.7
		C124.2,55.7,124.2,55.7,124.2,55.7z"/>
	<path class="st0" d="M36.8,40.8c-0.2-0.1-0.5-0.2-0.5-0.4c-0.5-2.8-1.1-5.6-1.5-8.5c0.6,2.7,1.1,5.5,1.7,8.2
		C36.5,40.4,36.7,40.6,36.8,40.8C36.8,40.8,36.8,40.8,36.8,40.8z"/>
	<path class="st0" d="M15.4,7.6c-2.8,0-5.6,0-8.4,0c0,0,0-0.1,0-0.1C9.8,7.6,12.6,7.6,15.4,7.6C15.4,7.6,15.4,7.6,15.4,7.6z"/>
	<path class="st0" d="M21.6,7.5c1,0.1,2,0.2,3.1,0.3c0,0,0,0.1,0,0.1C23.7,7.8,22.6,7.7,21.6,7.5C21.6,7.6,21.6,7.5,21.6,7.5z"/>
	<path class="st0" d="M87,31.9c5.7,0.1,11.4,0.2,17.2,0.3c0,0,0,0.1,0,0.1c-5.7-0.1-11.5-0.2-17.2-0.3C87,32,87,32,87,31.9z"/>
	<path class="st0" d="M129.9,31.9c-3.1,0-6.2,0-9.3,0c0,0,0,0,0,0C123.7,31.9,126.8,31.9,129.9,31.9
		C129.9,31.9,129.9,31.9,129.9,31.9z"/>
</g>
</svg>
